<mxfile host="65bd71144e">
    <diagram id="mxyQioTSUDZus_ub14__" name="Страница 1">
        <mxGraphModel dx="836" dy="352" grid="1" gridSize="10" guides="1" tooltips="1" connect="1" arrows="1" fold="1" page="1" pageScale="1" pageWidth="827" pageHeight="1169" math="0" shadow="0">
            <root>
                <mxCell id="0"/>
                <mxCell id="1" parent="0"/>
                <mxCell id="2" value="&lt;span style=&quot;white-space: pre;&quot;&gt;&#9;&lt;/span&gt;&amp;nbsp; LayOut&lt;br&gt;&lt;br&gt;form: string;" style="whiteSpace=wrap;html=1;fillColor=#3399FF;fontColor=#000000;strokeColor=#006EAF;verticalAlign=top;align=left;fontStyle=1;fontSize=17;" vertex="1" parent="1">
                    <mxGeometry x="60" y="60" width="150" height="150" as="geometry"/>
                </mxCell>
                <mxCell id="3" value="&lt;span style=&quot;&quot;&gt;&#9;&lt;/span&gt;&amp;nbsp;&lt;span style=&quot;white-space: pre;&quot;&gt;&#9;&lt;/span&gt;LayOut&lt;br&gt;&lt;br&gt;form: string;" style="whiteSpace=wrap;html=1;fontSize=17;fontColor=#000000;fillColor=#3399FF;fontStyle=1;verticalAlign=top;align=left;direction=south;" vertex="1" parent="1">
                    <mxGeometry x="345" y="65" width="150" height="140" as="geometry"/>
                </mxCell>
            </root>
        </mxGraphModel>
    </diagram>
</mxfile>